<svg width="19" height="18" viewBox="0 0 19 18" fill="none" xmlns="http://www.w3.org/2000/svg">
<path fill-rule="evenodd" clip-rule="evenodd" d="M9.2357 0C6.78756 0.00244921 4.44036 0.951186 2.70897 2.63811C0.977574 4.32502 0.00335233 6.61239 0 8.99846C0.00418564 11.3846 0.978574 13.6718 2.7097 15.359C4.44082 17.0462 6.78753 17.9959 9.2357 18C11.6833 17.9959 14.0293 17.046 15.7595 15.3586C17.4896 13.6712 18.4626 11.384 18.4651 8.99846C18.4626 6.61267 17.489 4.3253 15.7582 2.63829C14.0273 0.951287 11.6836 0.00245073 9.2357 0ZM9.22304 4.89731C9.33536 4.89605 9.44681 4.91679 9.55075 4.95829C9.6547 4.99979 9.74904 5.06122 9.82818 5.13892C9.90731 5.21663 9.96963 5.30903 10.0114 5.41065C10.0533 5.51227 10.0737 5.62103 10.0716 5.7305V8.1807H12.5855C12.808 8.1807 13.0214 8.26685 13.1788 8.42021C13.3361 8.57357 13.4245 8.78157 13.4245 8.99846C13.4245 9.21534 13.3361 9.42334 13.1788 9.5767C13.0214 9.73006 12.808 9.81622 12.5855 9.81622H10.0716V12.2664C10.0716 12.4833 9.98317 12.6913 9.82582 12.8447C9.66847 12.998 9.45506 13.0842 9.23254 13.0842C9.01001 13.0842 8.7966 12.998 8.63925 12.8447C8.4819 12.6913 8.3935 12.4833 8.3935 12.2664V9.8193H5.8764C5.65766 9.82384 5.4457 9.74524 5.28538 9.60013C5.12506 9.45503 5.02897 9.25481 5.01745 9.04187C5.00593 8.82892 5.07988 8.61997 5.22366 8.45923C5.36743 8.2985 5.56974 8.1986 5.78775 8.1807C5.81728 8.17917 5.84687 8.17917 5.8764 8.1807H8.38717V5.7305C8.38507 5.62234 8.40502 5.51484 8.44585 5.41424C8.48668 5.31364 8.54758 5.22194 8.62503 5.14445C8.70248 5.06695 8.79493 5.0052 8.89704 4.96278C8.99915 4.92036 9.11204 4.89811 9.22304 4.89731Z" fill="#FC8019"/>
</svg>
