<svg width="27" height="27" viewBox="0 0 27 27" fill="none" xmlns="http://www.w3.org/2000/svg">
<circle cx="13.5" cy="13.5" r="12.5" stroke="#272D2F" stroke-width="2"/>
<path d="M18.8798 14.7074H9.35565C8.91428 14.7074 8.55664 14.3498 8.55664 13.9084C8.55664 13.467 8.91428 13.1094 9.35565 13.1094H18.8798C19.3212 13.1094 19.6788 13.467 19.6788 13.9084C19.6788 14.3498 19.3212 14.7074 18.8798 14.7074Z" fill="#272D2F"/>
<path d="M13.0143 18.4867C12.8199 18.4867 12.625 18.4161 12.4712 18.2735L8.39632 14.4942C8.315 14.4188 8.25027 14.3273 8.20625 14.2255C8.16224 14.1237 8.13989 14.0139 8.14064 13.903C8.14139 13.7921 8.16523 13.6825 8.21062 13.5813C8.25601 13.4801 8.32198 13.3895 8.40431 13.3152L12.5911 9.53592C12.9187 9.24029 13.424 9.26617 13.7196 9.59377C14.0152 9.92136 13.9894 10.4266 13.6618 10.7223L10.1231 13.9164L13.5579 17.1019C13.8813 17.402 13.9005 17.9076 13.6004 18.231C13.4428 18.4007 13.229 18.4867 13.0143 18.4867Z" fill="#272D2F"/>
</svg>
