<svg width="16" height="16" viewBox="0 0 16 16" fill="none" xmlns="http://www.w3.org/2000/svg">
<path d="M3.71987 1.57695C3.41666 1.58406 3.12965 1.69428 2.91118 1.91256L1.85183 2.97428C1.35385 3.47186 1.41666 4.33586 1.99069 4.91068L5.15434 8.07888L1.99069 11.2457C1.41666 11.8203 1.35365 12.6845 1.85183 13.1831L2.91118 14.244C3.40916 14.7414 4.27158 14.6796 4.84639 14.1048L8.01005 10.937L11.1737 14.1048C11.7489 14.6796 12.6119 14.7414 13.1089 14.244L14.1699 13.1831C14.6668 12.6847 14.605 11.8205 14.0298 11.2457L10.8661 8.07888L14.0298 4.91068C14.605 4.33586 14.6668 3.47186 14.1699 2.97428L13.1089 1.91256C12.6119 1.41399 11.7489 1.477 11.1737 2.05261L8.01005 5.21962L4.84639 2.0528C4.52343 1.72846 4.10881 1.56747 3.71987 1.57695Z" fill="#E4343C"/>
</svg>
