<svg width="188" height="35" viewBox="0 0 188 35" fill="none" xmlns="http://www.w3.org/2000/svg">
<path fill-rule="evenodd" clip-rule="evenodd" d="M1.22386 0C0.899275 0 0.58798 0.131451 0.358461 0.365438C0.128942 0.599425 0 0.916781 0 1.24769C0 1.5786 0.128942 1.89595 0.358461 2.12994C0.58798 2.36393 0.899275 2.49538 1.22386 2.49538H3.65095C3.83791 2.49624 4.02268 2.53641 4.19373 2.61338C4.36477 2.69034 4.5184 2.80244 4.64503 2.94267C4.77165 3.08291 4.86854 3.24826 4.92964 3.4284C4.99074 3.60853 5.01474 3.79958 5.00014 3.9896L3.84116 18.1577C3.78151 18.8788 3.86948 19.6046 4.09949 20.2892C4.3295 20.9739 4.69652 21.6023 5.1773 22.1347C5.65808 22.6671 6.24213 23.0918 6.8924 23.382C7.54268 23.6722 8.245 23.8215 8.95484 23.8204H23.8137C26.4679 23.8204 28.7534 21.6347 28.9554 18.9559L29.5143 11.0368H35.234C35.5586 11.0368 35.8699 10.9053 36.0994 10.6714C36.3289 10.4374 36.4578 10.12 36.4578 9.78911C36.4578 9.4582 36.3289 9.14085 36.0994 8.90686C35.8699 8.67287 35.5586 8.54142 35.234 8.54142H29.6897L29.7089 8.28587C29.7673 7.5646 29.6772 6.83884 29.4444 6.15514C29.2116 5.47145 28.8411 4.8449 28.3569 4.3157C27.8726 3.78649 27.2852 3.3663 26.6324 3.08208C25.9795 2.79786 25.2756 2.65588 24.5657 2.66525H7.25765C7.00602 1.89165 6.52199 1.21838 5.87414 0.740833C5.22628 0.263289 4.44746 0.00568291 3.648 0.00450954L1.22386 0ZM27.2405 8.53691L27.2715 8.10097C27.3045 7.72198 27.2588 7.34014 27.1373 6.98038C27.0158 6.62063 26.8212 6.29104 26.5663 6.01313C26.3114 5.73523 26.0019 5.51526 25.6579 5.36759C25.3139 5.21992 24.9433 5.14786 24.5701 5.15612H7.35792L6.27709 18.3681C6.24623 18.7449 6.29253 19.1241 6.41305 19.4817C6.53356 19.8393 6.72566 20.1674 6.97717 20.4453C7.22867 20.7232 7.53408 20.9447 7.87402 21.0959C8.21396 21.2471 8.58102 21.3246 8.95189 21.3235H23.8137C25.1777 21.3235 26.4089 20.1555 26.5151 18.768L27.0621 11.0338H11.0177C10.6931 11.0338 10.3818 10.9023 10.1523 10.6684C9.92279 10.4344 9.79385 10.117 9.79385 9.7861C9.79385 9.45519 9.92279 9.13784 10.1523 8.90385C10.3818 8.66986 10.6931 8.53841 11.0177 8.53841L27.2405 8.53691Z" fill="#272D2F"/>
<path d="M10.3927 30.0452C10.3927 30.3613 10.3007 30.6702 10.1285 30.933C9.95628 31.1958 9.71148 31.4006 9.42507 31.5215C9.13866 31.6425 8.8235 31.6741 8.51945 31.6125C8.2154 31.5508 7.93611 31.3986 7.7169 31.1751C7.49769 30.9517 7.34841 30.6669 7.28793 30.357C7.22745 30.047 7.25849 29.7257 7.37713 29.4337C7.49576 29.1417 7.69666 28.8922 7.95443 28.7166C8.21219 28.541 8.51523 28.4473 8.82524 28.4473C9.03113 28.4471 9.23504 28.4883 9.4253 28.5685C9.61556 28.6487 9.78843 28.7664 9.93401 28.9149C10.0796 29.0633 10.1951 29.2395 10.2738 29.4335C10.3525 29.6274 10.3929 29.8353 10.3927 30.0452Z" fill="#272D2F"/>
<path d="M25.2745 30.0452C25.2742 30.3609 25.1821 30.6694 25.0099 30.9317C24.8376 31.1941 24.5929 31.3985 24.3068 31.5191C24.0206 31.6397 23.7058 31.6711 23.4021 31.6093C23.0985 31.5475 22.8196 31.3954 22.6007 31.172C22.3819 30.9487 22.2329 30.6642 22.1726 30.3546C22.1123 30.045 22.1434 29.7241 22.2619 29.4324C22.3805 29.1408 22.5812 28.8916 22.8387 28.7162C23.0962 28.5409 23.3989 28.4473 23.7085 28.4473C23.9144 28.4471 24.1182 28.4883 24.3084 28.5685C24.4985 28.6488 24.6713 28.7665 24.8168 28.9149C24.9623 29.0634 25.0776 29.2396 25.1561 29.4336C25.2346 29.6275 25.2749 29.8354 25.2745 30.0452Z" fill="#272D2F"/>
<path fill-rule="evenodd" clip-rule="evenodd" d="M26.6751 30.0093C26.681 30.6452 26.4397 31.2575 26.0039 31.7125C25.5681 32.1674 24.9734 32.4279 24.3497 32.4371H8.45574C7.82416 32.4371 7.21845 32.1813 6.77186 31.726C6.32526 31.2707 6.07437 30.6532 6.07437 30.0093C6.07437 29.3654 6.32526 28.7479 6.77186 28.2926C7.21845 27.8374 7.82416 27.5816 8.45574 27.5816H24.3497C24.9734 27.5907 25.5681 27.8512 26.0039 28.3062C26.4397 28.7611 26.681 29.3735 26.6751 30.0093ZM28.502 32.4867C28.0928 33.2449 27.4922 33.8778 26.7624 34.3197C26.0326 34.7616 25.2001 34.9965 24.3512 35.0001H8.45574C5.81485 35.0001 3.67383 32.7648 3.67383 30.0093C3.67383 27.2539 5.81485 25.0186 8.45574 25.0186H24.3497C26.9891 25.0186 29.1302 27.2524 29.1302 30.0093C29.1326 30.8763 28.9163 31.7295 28.502 32.4867Z" fill="#FC8019"/>
<path d="M70.4788 17.8265C70.4892 19.1202 70.2642 20.4047 69.8152 21.6147C69.3866 22.7645 68.7471 23.8206 67.9308 24.7264C67.1271 25.6158 66.151 26.3252 65.0643 26.8099C63.9231 27.3104 62.6939 27.5685 61.4517 27.5685C60.2094 27.5685 58.9802 27.3104 57.8391 26.8099C56.7596 26.3154 55.7873 25.6072 54.9785 24.7264C54.1764 23.8147 53.5465 22.7598 53.1206 21.6147C52.2359 19.1698 52.2359 16.4833 53.1206 14.0384C53.5427 12.8995 54.1731 11.8527 54.9785 10.9537C56.2427 9.58724 57.8898 8.65183 59.6949 8.27518C61.5 7.89852 63.3751 8.09897 65.0643 8.84917C66.1554 9.33547 67.1325 10.0529 67.9308 10.9537C68.7503 11.8467 69.3905 12.8947 69.8152 14.0384C70.2642 15.2484 70.4892 16.5328 70.4788 17.8265ZM67.0254 17.8265C67.0422 16.6929 66.7967 15.5713 66.3088 14.5525C65.8687 13.6053 65.1912 12.7932 64.3447 12.1984C63.4817 11.6332 62.4775 11.3327 61.4517 11.3327C60.4259 11.3327 59.4217 11.6332 58.5586 12.1984C57.7189 12.786 57.0432 13.5858 56.5975 14.5194C56.1241 15.554 55.8881 16.685 55.9074 17.8265C55.8919 18.9677 56.1277 20.0978 56.5975 21.1337C57.0432 22.0699 57.72 22.8718 58.5616 23.4607C59.4246 24.0259 60.4288 24.3264 61.4546 24.3264C62.4804 24.3264 63.4846 24.0259 64.3477 23.4607C65.1892 22.8718 65.8661 22.0699 66.3117 21.1337C66.7976 20.1025 67.0419 18.9704 67.0254 17.8265Z" fill="#272D2F"/>
<path d="M74.896 27.6474C74.685 27.6542 74.475 27.6169 74.2787 27.5378C74.0824 27.4586 73.9041 27.3394 73.7547 27.1874C73.4555 26.8672 73.2932 26.439 73.3035 25.9969V14.8218C73.2969 14.6067 73.3335 14.3925 73.4111 14.1924C73.4887 13.9923 73.6056 13.8105 73.7547 13.6583C73.9037 13.5039 74.0814 13.3813 74.2773 13.2976C74.4732 13.214 74.6836 13.1709 74.896 13.1709C75.1084 13.1709 75.3187 13.214 75.5147 13.2976C75.7106 13.3813 75.8883 13.5039 76.0373 13.6583C76.1864 13.8105 76.3033 13.9923 76.3809 14.1924C76.4585 14.3925 76.4951 14.6067 76.4885 14.8218V17.3652L76.3027 15.5523C76.4857 15.1349 76.7348 14.7509 77.04 14.4159C77.3483 14.081 77.7066 13.7979 78.1016 13.5771C78.4899 13.343 78.9104 13.1697 79.3491 13.063C79.7836 12.9557 80.2291 12.9012 80.6762 12.9006C81.1588 12.8836 81.6308 13.0472 82.0032 13.3606C82.1725 13.4842 82.3111 13.6464 82.4079 13.8344C82.5047 14.0223 82.557 14.2307 82.5606 14.4429C82.5606 15.0382 82.4102 15.4712 82.1094 15.7417C81.8369 15.9835 81.4886 16.1179 81.1274 16.1206C80.8082 16.124 80.4918 16.0595 80.1984 15.9312C79.9062 15.7992 79.589 15.7346 79.2695 15.7417C78.9284 15.7472 78.5928 15.8304 78.2874 15.9853C77.9407 16.1513 77.633 16.3912 77.385 16.6888C77.0976 17.0533 76.8733 17.4651 76.7215 17.9064C76.5514 18.4483 76.4707 19.0152 76.4826 19.584V25.9939C76.4929 26.436 76.3306 26.8642 76.0314 27.1844C75.8829 27.3362 75.7057 27.4556 75.5105 27.5352C75.3153 27.6148 75.1062 27.653 74.896 27.6474Z" fill="#272D2F"/>
<path d="M95.8849 7.33864C96.0961 7.33202 96.3063 7.36941 96.5028 7.4485C96.6993 7.52759 96.8779 7.64673 97.0277 7.79863C97.1784 7.95529 97.2962 8.1417 97.3738 8.34643C97.4514 8.55116 97.4872 8.76988 97.4789 8.9892V25.7083C97.4892 26.1504 97.3269 26.5786 97.0277 26.8988C96.7181 27.1944 96.3098 27.3589 95.8856 27.3589C95.4615 27.3589 95.0532 27.1944 94.7436 26.8988C94.4451 26.5782 94.2829 26.1502 94.2924 25.7083V24.3854L94.8822 24.6289C94.8822 24.8634 94.7569 25.152 94.5092 25.4948C94.217 25.8633 93.8784 26.1909 93.5021 26.4689C93.0367 26.8159 92.5279 27.098 91.9892 27.3077C91.3936 27.5292 90.7637 27.6392 90.1298 27.6324C88.9579 27.646 87.8067 27.3174 86.8121 26.6854C85.813 26.0255 84.9999 25.1115 84.4529 24.0336C83.8856 22.8972 83.6025 21.5984 83.6035 20.1372C83.6035 18.658 83.8866 17.3592 84.4529 16.2408C84.9852 15.1616 85.7898 14.2463 86.7841 13.5891C87.7464 12.9429 88.8758 12.6038 90.0281 12.615C90.7413 12.6071 91.4503 12.7261 92.1234 12.9668C92.7143 13.1759 93.27 13.4771 93.7704 13.8597C94.1927 14.1633 94.5608 14.5386 94.8586 14.9691C95.1241 15.3299 95.2568 15.6365 95.2568 15.8891L94.2924 16.2378V8.9892C94.2857 8.77296 94.3225 8.55762 94.4007 8.35647C94.4788 8.15532 94.5965 7.97263 94.7466 7.81967C94.8922 7.6621 95.069 7.53776 95.2652 7.45485C95.4614 7.37194 95.6726 7.33233 95.8849 7.33864ZM90.5235 24.656C91.2487 24.6706 91.9612 24.461 92.5672 24.0547C93.1568 23.6509 93.6256 23.0891 93.9223 22.4312C94.2646 21.7153 94.4373 20.9275 94.4266 20.1312C94.4392 19.326 94.2665 18.529 93.9223 17.8042C93.6256 17.1463 93.1568 16.5845 92.5672 16.1807C91.9587 15.7917 91.255 15.5854 90.5368 15.5854C89.8185 15.5854 89.1148 15.7917 88.5063 16.1807C87.9136 16.5876 87.4378 17.1479 87.1277 17.8042C86.7992 18.5335 86.6359 19.3288 86.6499 20.1312C86.6377 20.9247 86.801 21.7108 87.1277 22.4312C87.4378 23.0875 87.9136 23.6478 88.5063 24.0547C89.104 24.4576 89.8071 24.6672 90.5235 24.656Z" fill="#272D2F"/>
<path d="M107.66 27.6171C106.156 27.6171 104.846 27.3014 103.732 26.67C102.662 26.0479 101.78 25.1378 101.184 24.0394C100.588 22.8897 100.287 21.6053 100.308 20.3053C100.308 18.6818 100.626 17.3018 101.263 16.1654C101.866 15.0669 102.746 14.1524 103.811 13.5167C104.818 12.9142 105.965 12.5976 107.133 12.5997C108.013 12.5947 108.884 12.7888 109.681 13.1679C110.491 13.5437 111.221 14.0768 111.831 14.7373C112.455 15.3936 112.95 16.165 113.291 17.0102C113.663 17.8805 113.853 18.8206 113.848 19.7702C113.844 19.9724 113.797 20.1714 113.71 20.3531C113.623 20.5349 113.498 20.6951 113.344 20.8224C113.033 21.0904 112.637 21.2346 112.229 21.2283H103.351L103 20L103.5 18.5L110.441 18.5469V18.3331C110.407 17.8153 110.212 17.3221 109.883 16.926C109.545 16.5125 109.123 16.1778 108.647 15.9444C108.171 15.711 107.651 15.5844 107.123 15.5731C106.62 15.5691 106.119 15.642 105.637 15.7896C105.185 15.9285 104.775 16.1796 104.442 16.5202C104.077 16.9122 103.805 17.3843 103.646 17.9001C103.432 18.6096 103.332 19.3498 103.351 20.0919C103.351 21.066 103.548 21.8957 103.941 22.5812C104.318 23.2193 104.848 23.7498 105.48 24.1236C106.101 24.4636 106.795 24.6413 107.5 24.6407C108.027 24.6549 108.553 24.6004 109.066 24.4783C109.392 24.3966 109.704 24.2691 109.995 24.0995C110.243 23.9372 110.464 23.8019 110.659 23.6936C110.937 23.5419 111.246 23.4585 111.561 23.4501C111.74 23.4442 111.917 23.4774 112.082 23.5474C112.247 23.6174 112.395 23.7226 112.517 23.856C112.643 23.9777 112.744 24.1246 112.812 24.2875C112.881 24.4504 112.916 24.6258 112.915 24.803C112.915 25.2901 112.669 25.732 112.178 26.1289C111.718 26.5297 111.072 26.8805 110.24 27.1811C109.41 27.471 108.538 27.6183 107.66 27.6171Z" fill="#272D2F"/>
<path d="M118.263 27.6474C118.052 27.6542 117.842 27.6169 117.646 27.5378C117.45 27.4586 117.271 27.3394 117.122 27.1874C116.823 26.8672 116.66 26.439 116.671 25.9969V14.8218C116.664 14.6067 116.701 14.3925 116.778 14.1924C116.856 13.9923 116.973 13.8105 117.122 13.6583C117.271 13.5041 117.449 13.3817 117.645 13.2981C117.841 13.2146 118.051 13.1715 118.263 13.1715C118.476 13.1715 118.686 13.2146 118.882 13.2981C119.078 13.3817 119.255 13.5041 119.404 13.6583C119.554 13.8105 119.671 13.9923 119.748 14.1924C119.826 14.3925 119.862 14.6067 119.856 14.8218V17.3652L119.667 15.5523C119.85 15.1349 120.099 14.7509 120.404 14.4159C120.713 14.081 121.071 13.7979 121.466 13.5771C121.854 13.343 122.275 13.1697 122.713 13.063C123.148 12.9557 123.593 12.9012 124.04 12.9006C124.523 12.8836 124.995 13.0472 125.367 13.3606C125.537 13.4842 125.675 13.6464 125.772 13.8344C125.869 14.0223 125.921 14.2307 125.925 14.4429C125.925 15.0382 125.774 15.4712 125.474 15.7417C125.201 15.9835 124.853 16.1179 124.492 16.1206C124.172 16.124 123.856 16.0595 123.563 15.9312C123.27 15.7992 122.953 15.7346 122.634 15.7417C122.293 15.7472 121.957 15.8304 121.652 15.9853C121.305 16.1513 120.997 16.3912 120.749 16.6888C120.462 17.0533 120.238 17.4651 120.086 17.9064C119.916 18.4483 119.835 19.0152 119.847 19.584V25.9939C119.857 26.436 119.695 26.8642 119.396 27.1844C119.248 27.3358 119.071 27.455 118.876 27.5346C118.681 27.6142 118.473 27.6526 118.263 27.6474Z" fill="#272D2F"/>
<path d="M134.484 27.6322C134.034 27.6494 133.595 27.484 133.264 27.1722C133.109 27.0169 132.987 26.8308 132.905 26.6255C132.824 26.4202 132.785 26.2 132.79 25.9787V11.8031H136.241V25.9787C136.244 26.2022 136.201 26.424 136.114 26.6292C136.027 26.8345 135.898 27.0186 135.736 27.1692C135.396 27.4864 134.945 27.6529 134.484 27.6322ZM128.619 11.8031C128.19 11.8146 127.772 11.6599 127.451 11.3702C127.301 11.2243 127.183 11.0475 127.105 10.8515C127.027 10.6555 126.991 10.4449 127 10.2337C126.99 10.0263 127.025 9.81919 127.103 9.62735C127.181 9.43551 127.3 9.26371 127.451 9.12432C127.772 8.83456 128.19 8.67985 128.619 8.69138H140.403C140.825 8.67668 141.235 8.83228 141.544 9.12432C141.695 9.2709 141.816 9.44721 141.898 9.64256C141.98 9.83791 142.022 10.0482 142.022 10.2608C142.022 10.4733 141.98 10.6836 141.898 10.879C141.816 11.0743 141.695 11.2506 141.544 11.3972C141.228 11.6738 140.82 11.8186 140.403 11.8031H128.619Z" fill="#FC8019"/>
<path d="M154.738 12.6004C154.949 12.5936 155.159 12.6309 155.356 12.7101C155.552 12.7892 155.73 12.9084 155.88 13.0604C156.03 13.217 156.148 13.4035 156.226 13.6082C156.303 13.8129 156.339 14.0316 156.331 14.2509V25.6936C156.341 26.1358 156.179 26.564 155.88 26.8842C155.57 27.1797 155.162 27.3441 154.738 27.3441C154.314 27.3441 153.906 27.1797 153.597 26.8842C153.298 26.564 153.136 26.1358 153.146 25.6936V24.3708L153.736 24.6143C153.736 24.8488 153.612 25.1374 153.364 25.4802C153.071 25.8487 152.732 26.1762 152.356 26.4543C151.89 26.8016 151.382 27.0837 150.843 27.2931C150.248 27.5147 149.618 27.6247 148.985 27.6178C147.813 27.6318 146.661 27.3031 145.667 26.6707C144.668 26.0107 143.855 25.0968 143.308 24.019C142.725 22.8075 142.434 21.4718 142.458 20.1226C142.458 18.6434 142.742 17.3446 143.308 16.2262C143.842 15.1465 144.648 14.2312 145.643 13.5745C146.606 12.9278 147.735 12.5886 148.887 12.6004C149.601 12.5924 150.311 12.7114 150.984 12.9521C151.575 13.1613 152.13 13.4625 152.63 13.8451C153.052 14.1487 153.42 14.5239 153.718 14.9545C153.983 15.3152 154.116 15.6219 154.116 15.8744L153.161 16.2262V14.2509C153.154 14.0359 153.191 13.8217 153.268 13.6216C153.346 13.4215 153.463 13.2397 153.612 13.0874C153.756 12.9302 153.93 12.8056 154.124 12.7217C154.318 12.6378 154.528 12.5965 154.738 12.6004ZM149.377 24.6414C150.102 24.6555 150.814 24.4459 151.421 24.0401C152.01 23.6366 152.479 23.0747 152.774 22.4166C153.117 21.7009 153.29 20.913 153.279 20.1166C153.292 19.3113 153.119 18.5142 152.774 17.7896C152.479 17.1314 152.01 16.5695 151.421 16.1661C150.814 15.7602 150.102 15.5506 149.377 15.5648C148.661 15.5532 147.957 15.7628 147.36 16.1661C146.767 16.5733 146.291 17.1335 145.98 17.7896C145.652 18.5191 145.489 19.3143 145.502 20.1166C145.49 20.91 145.654 21.696 145.98 22.4166C146.291 23.0726 146.767 23.6328 147.36 24.0401C147.957 24.4433 148.661 24.6529 149.377 24.6414Z" fill="#272D2F"/>
<path d="M167.414 12.8996C168.723 12.8996 169.714 13.1792 170.387 13.7384C171.084 14.3096 171.579 15.0987 171.793 15.9843C172.07 16.9879 172.204 18.0266 172.191 19.0689V25.9929C172.202 26.435 172.039 26.8632 171.74 27.1834C171.431 27.4789 171.023 27.6434 170.599 27.6434C170.175 27.6434 169.767 27.4789 169.458 27.1834C169.158 26.8632 168.996 26.435 169.006 25.9929V19.0689C169.015 18.5269 168.934 17.9874 168.768 17.4725C168.639 17.0041 168.358 16.594 167.971 16.309C167.578 16.0204 167.021 15.8761 166.299 15.8761C165.671 15.8565 165.048 16.0058 164.494 16.309C164.027 16.5872 163.641 16.9892 163.38 17.4725C163.126 17.9644 162.998 18.5134 163.008 19.0689V25.9929C163.018 26.435 162.856 26.8632 162.557 27.1834C162.247 27.4789 161.839 27.6434 161.416 27.6434C160.992 27.6434 160.584 27.4789 160.274 27.1834C159.975 26.8632 159.813 26.435 159.823 25.9929V14.8208C159.816 14.6057 159.853 14.3915 159.931 14.1915C160.008 13.9914 160.125 13.8096 160.274 13.6573C160.423 13.5031 160.601 13.3807 160.797 13.2971C160.993 13.2136 161.203 13.1705 161.416 13.1705C161.628 13.1705 161.838 13.2136 162.034 13.2971C162.23 13.3807 162.408 13.5031 162.557 13.6573C162.706 13.8096 162.823 13.9914 162.9 14.1915C162.978 14.3915 163.015 14.6057 163.008 14.8208V15.9843L162.61 15.9031C162.801 15.5514 163.032 15.2243 163.3 14.929C163.615 14.5548 163.971 14.2189 164.362 13.9279C164.782 13.6139 165.248 13.3675 165.742 13.1973C166.277 12.9949 166.843 12.894 167.414 12.8996Z" fill="#272D2F"/>
<path d="M177.535 27.6615C177.324 27.6683 177.114 27.631 176.917 27.5519C176.721 27.4728 176.543 27.3535 176.393 27.2015C176.094 26.8813 175.932 26.4531 175.942 26.011V9.28891C175.936 9.07385 175.972 8.85968 176.05 8.65959C176.127 8.45949 176.244 8.2777 176.393 8.1254C176.542 7.97123 176.72 7.84882 176.916 7.76526C177.112 7.6817 177.322 7.63867 177.535 7.63867C177.747 7.63867 177.957 7.6817 178.153 7.76526C178.349 7.84882 178.527 7.97123 178.676 8.1254C178.825 8.2777 178.942 8.45949 179.02 8.65959C179.097 8.85968 179.134 9.07385 179.127 9.28891V26.008C179.137 26.4501 178.975 26.8783 178.676 27.1985C178.527 27.3511 178.349 27.4708 178.152 27.5505C177.956 27.6301 177.746 27.6679 177.535 27.6615ZM185.975 13.1853C186.178 13.1863 186.378 13.2328 186.562 13.3217C186.745 13.4105 186.907 13.5395 187.037 13.6994C187.337 14.0422 187.488 14.3759 187.488 14.7006C187.488 15.1335 187.275 15.5394 186.851 15.9182L178.862 23.4134L178.729 19.6793L184.807 13.6994C184.957 13.537 185.138 13.4076 185.339 13.3192C185.54 13.2308 185.756 13.1852 185.975 13.1853ZM186.373 27.6345C186.151 27.6371 185.932 27.59 185.73 27.4965C185.528 27.4029 185.349 27.2653 185.205 27.0933L180.295 21.7899L182.71 19.517L187.494 24.8204C187.652 24.9796 187.778 25.1691 187.865 25.378C187.951 25.5869 187.997 25.8112 187.998 26.038C188.001 26.2629 187.952 26.4854 187.855 26.6876C187.759 26.8897 187.616 27.0658 187.441 27.2015C187.145 27.4678 186.767 27.6208 186.373 27.6345Z" fill="#272D2F"/>
</svg>
