<svg width="20" height="20" viewBox="0 0 20 20" fill="none" xmlns="http://www.w3.org/2000/svg">
<path fill-rule="evenodd" clip-rule="evenodd" d="M10 0.15625C12.7182 0.15625 15.1791 1.25809 16.9605 3.03945C18.7419 4.82082 19.8438 7.2818 19.8438 10C19.8438 12.7182 18.7419 15.1792 16.9605 16.9605C15.1791 18.7419 12.7182 19.8438 10 19.8438C7.2818 19.8438 4.82082 18.7419 3.03945 16.9605C1.25809 15.1792 0.15625 12.7182 0.15625 10C0.15625 7.2818 1.25809 4.82082 3.03945 3.03945C4.82082 1.25809 7.2818 0.15625 10 0.15625ZM6.30273 6.11527H5.11719V7.05277H5.83398V13.8982C5.83398 14.2818 5.99055 14.6302 6.24281 14.8824C6.49504 15.1346 6.84344 15.2913 7.22703 15.2913H12.773C13.1566 15.2913 13.5049 15.1347 13.7572 14.8824C14.0095 14.6302 14.166 14.2818 14.166 13.8982V7.05277H14.8828V6.11527H12.1566V5.17746L11.6879 4.70871H8.31211L7.84336 5.17746V6.11527H6.30273ZM8.78086 6.11527H11.2191V5.64621H8.78086V6.11375V6.11527ZM11.5538 8.65371H10.6163V12.7529H11.5538V8.65371ZM9.38367 8.65371H8.44617V12.7529H9.38367V8.65371Z" fill="#E4343C"/>
</svg>
