<svg width="512" height="512" viewBox="0 0 512 512" fill="none" xmlns="http://www.w3.org/2000/svg">
<g clip-path="url(#clip0_1433_10389)">
<path d="M452.267 512.002H59.7333C43.8966 511.984 28.7137 505.684 17.5154 494.486C6.31719 483.288 0.0180682 468.105 0 452.268L0 213.335C0.0180682 197.498 6.31719 182.315 17.5154 171.117C28.7137 159.919 43.8966 153.62 59.7333 153.602H230.4C232.663 153.602 234.834 154.501 236.434 156.101C238.034 157.701 238.933 159.872 238.933 162.135C238.933 164.398 238.034 166.569 236.434 168.169C234.834 169.769 232.663 170.668 230.4 170.668H59.7333C48.4216 170.682 37.577 175.181 29.5784 183.18C21.5798 191.179 17.0802 202.023 17.0667 213.335V452.268C17.0802 463.58 21.5798 474.425 29.5784 482.423C37.577 490.422 48.4216 494.921 59.7333 494.935H452.267C463.578 494.921 474.423 490.422 482.422 482.423C490.42 474.425 494.92 463.58 494.933 452.268V213.335C494.941 205.846 492.975 198.488 489.233 192.002C488.213 190.051 487.986 187.782 488.599 185.669C489.212 183.555 490.618 181.76 492.524 180.658C494.429 179.557 496.687 179.234 498.824 179.758C500.962 180.281 502.815 181.611 503.996 183.468C509.244 192.547 512.005 202.849 512 213.335V452.268C511.982 468.105 505.683 483.288 494.485 494.486C483.286 505.684 468.103 511.984 452.267 512.002Z" fill="#F7A504"/>
<path d="M255.999 341.334C244.745 341.731 233.731 338.025 225.006 330.906L20.6667 186.164C19.7427 185.52 18.9553 184.699 18.3498 183.75C17.7444 182.8 17.3329 181.74 17.1391 180.631C16.9452 179.522 16.9729 178.385 17.2205 177.286C17.4681 176.188 17.9307 175.149 18.5816 174.23C19.2326 173.311 20.059 172.53 21.0132 171.932C21.9675 171.334 23.0307 170.93 24.1415 170.745C25.2523 170.56 26.3889 170.596 27.4855 170.852C28.5822 171.109 29.6173 171.579 30.5313 172.237L235.331 317.304C235.723 317.583 236.091 317.894 236.432 318.234C242.032 322.503 248.968 324.641 255.999 324.267C258.262 324.267 260.433 325.166 262.033 326.766C263.633 328.367 264.532 330.537 264.532 332.8C264.532 335.064 263.633 337.234 262.033 338.834C260.433 340.435 258.262 341.334 255.999 341.334Z" fill="#F7A504"/>
<path d="M256.002 341.333C253.739 341.333 251.568 340.434 249.968 338.833C248.368 337.233 247.469 335.063 247.469 332.799C247.469 330.536 248.368 328.366 249.968 326.766C251.568 325.165 253.739 324.266 256.002 324.266C263.066 324.634 270.028 322.461 275.629 318.139C275.941 317.832 276.275 317.547 276.627 317.286L336.855 274.619C337.77 273.971 338.803 273.509 339.896 273.26C340.989 273.011 342.12 272.98 343.225 273.168C344.33 273.356 345.387 273.76 346.336 274.357C347.285 274.954 348.107 275.731 348.755 276.646C349.403 277.56 349.865 278.593 350.114 279.686C350.363 280.779 350.394 281.911 350.206 283.016C350.018 284.12 349.614 285.178 349.017 286.126C348.42 287.075 347.643 287.897 346.728 288.546L286.952 330.888C278.241 338.004 267.243 341.715 256.002 341.333ZM25.6018 494.933C23.9144 494.932 22.2649 494.432 20.8619 493.494C19.459 492.556 18.3655 491.224 17.7198 489.665C17.0741 488.106 16.9051 486.39 17.2342 484.735C17.5633 483.08 18.3757 481.56 19.5688 480.366L198.769 301.166C200.378 299.612 202.534 298.752 204.771 298.771C207.009 298.791 209.149 299.688 210.731 301.27C212.313 302.853 213.211 304.993 213.23 307.23C213.249 309.468 212.389 311.623 210.835 313.233L31.6349 492.433C30.035 494.033 27.8648 494.932 25.6018 494.933Z" fill="#F7A504"/>
<path d="M486.4 494.933C484.137 494.933 481.967 494.034 480.367 492.433L301.167 313.233C299.613 311.624 298.752 309.468 298.772 307.231C298.791 304.993 299.689 302.853 301.271 301.271C302.853 299.689 304.993 298.791 307.231 298.772C309.468 298.752 311.624 299.613 313.233 301.167L492.433 480.367C493.626 481.56 494.439 483.081 494.768 484.736C495.097 486.391 494.928 488.106 494.282 489.665C493.636 491.224 492.543 492.557 491.14 493.495C489.737 494.432 488.088 494.933 486.4 494.933ZM366.933 290.133C345.814 290.206 324.938 285.619 305.795 276.699C286.651 267.78 269.71 254.748 256.179 238.532C245.951 247.688 236.817 257.997 228.958 269.252C227.941 270.771 226.464 271.923 224.743 272.54C223.022 273.156 221.149 273.203 219.399 272.674C217.65 272.146 216.116 271.07 215.024 269.604C213.932 268.139 213.339 266.361 213.333 264.533C212.983 241.456 219.704 218.825 232.593 199.68C225.493 182.349 221.849 163.796 221.867 145.067C221.867 116.375 230.375 88.3281 246.315 64.472C262.255 40.6159 284.911 22.0224 311.419 11.0426C337.926 0.062855 367.094 -2.80995 395.234 2.78748C423.375 8.38491 449.223 22.2012 469.511 42.4891C489.799 62.777 503.615 88.6255 509.213 116.766C514.81 144.906 511.937 174.074 500.957 200.581C489.978 227.089 471.384 249.745 447.528 265.685C423.672 281.625 395.625 290.133 366.933 290.133ZM257.519 217.95C258.845 217.945 260.153 218.251 261.339 218.844C262.525 219.436 263.555 220.3 264.346 221.363C283.883 247.478 312.681 265.117 344.822 270.655C376.962 276.193 410.003 269.209 437.154 251.139C464.304 233.069 483.502 205.286 490.802 173.499C498.101 141.713 492.948 108.337 476.401 80.2329C459.853 52.1284 433.169 31.4297 401.833 22.3909C370.496 13.3522 336.888 16.6599 307.915 31.6344C278.942 46.6089 256.805 72.1126 246.054 102.904C235.304 133.695 236.756 167.435 250.112 197.188C250.731 198.577 250.968 200.105 250.799 201.616C250.629 203.127 250.059 204.565 249.148 205.781C242.372 214.83 237.316 225.046 234.231 235.921C239.834 230 245.913 224.549 252.408 219.622C253.887 218.529 255.679 217.942 257.519 217.95Z" fill="#F7A504"/>
<path d="M366.932 170.666C360.142 170.666 353.631 167.969 348.83 163.168C344.029 158.367 341.332 151.855 341.332 145.066V76.7992C341.332 70.0097 344.029 63.4982 348.83 58.6973C353.631 53.8964 360.142 51.1992 366.932 51.1992C373.722 51.1992 380.233 53.8964 385.034 58.6973C389.835 63.4982 392.532 70.0097 392.532 76.7992V145.066C392.532 151.855 389.835 158.367 385.034 163.168C380.233 167.969 373.722 170.666 366.932 170.666ZM366.932 68.2659C364.669 68.2659 362.498 69.1649 360.898 70.7652C359.298 72.3656 358.399 74.536 358.399 76.7992V145.066C358.399 147.329 359.298 149.5 360.898 151.1C362.498 152.7 364.669 153.599 366.932 153.599C369.195 153.599 371.366 152.7 372.966 151.1C374.566 149.5 375.465 147.329 375.465 145.066V76.7992C375.465 74.536 374.566 72.3656 372.966 70.7652C371.366 69.1649 369.195 68.2659 366.932 68.2659ZM366.932 238.933C361.869 238.933 356.919 237.431 352.709 234.618C348.5 231.805 345.218 227.807 343.281 223.129C341.343 218.451 340.836 213.304 341.824 208.338C342.812 203.372 345.25 198.811 348.83 195.231C352.41 191.65 356.972 189.212 361.938 188.224C366.904 187.237 372.051 187.744 376.729 189.681C381.407 191.619 385.405 194.9 388.218 199.11C391.031 203.32 392.532 208.269 392.532 213.333C392.532 220.122 389.835 226.634 385.034 231.434C380.233 236.235 373.722 238.933 366.932 238.933ZM366.932 204.799C365.244 204.799 363.594 205.3 362.191 206.237C360.788 207.175 359.694 208.508 359.048 210.067C358.402 211.626 358.233 213.342 358.563 214.997C358.892 216.653 359.705 218.173 360.898 219.367C362.091 220.56 363.612 221.373 365.267 221.702C366.923 222.031 368.638 221.862 370.198 221.216C371.757 220.57 373.09 219.477 374.027 218.073C374.965 216.67 375.465 215.02 375.465 213.333C375.465 211.069 374.566 208.899 372.966 207.299C371.366 205.698 369.195 204.799 366.932 204.799Z" fill="#F7A504"/>
</g>
<defs>
<clipPath id="clip0_1433_10389">
<rect width="512" height="512" fill="white"/>
</clipPath>
</defs>
</svg>
