<svg width="20" height="20" viewBox="0 0 20 20" fill="none" xmlns="http://www.w3.org/2000/svg">
<path fill-rule="evenodd" clip-rule="evenodd" d="M2.14441 6.02185C2.343 5.92499 2.57192 5.91095 2.78086 5.98284C2.98979 6.05472 3.16162 6.20664 3.25857 6.40519C3.58815 7.08273 4.00259 7.71558 4.49191 8.28852C5.13443 9.04413 5.91465 9.67079 6.79107 10.1352C6.84048 10.1548 6.88791 10.1791 6.93274 10.2077C7.88821 10.6859 8.94176 10.9356 10.0102 10.9369C11.0977 10.9369 12.1394 10.6785 13.0877 10.2085C13.1326 10.1798 13.18 10.1552 13.2294 10.1352C14.1362 9.65464 14.9398 9.00058 15.5944 8.21019C16.0552 7.65799 16.4472 7.05189 16.7619 6.40519C16.8589 6.20661 17.0309 6.0547 17.2399 5.98289C17.4489 5.91108 17.6779 5.92524 17.8765 6.02227C18.0751 6.11929 18.227 6.29123 18.2988 6.50026C18.3706 6.70928 18.3564 6.93827 18.2594 7.13685C17.9886 7.69185 17.6698 8.22219 17.3069 8.72185L18.5161 9.93019C18.6724 10.0864 18.7603 10.2984 18.7604 10.5195C18.7605 10.7405 18.6727 10.9526 18.5165 11.1089C18.3602 11.2653 18.1483 11.3532 17.9272 11.3533C17.7061 11.3533 17.4941 11.2656 17.3377 11.1094L16.2169 9.98852C15.7362 10.4629 15.2062 10.8848 14.6361 11.2469L15.3386 12.6469C15.3886 12.7448 15.4188 12.8517 15.4273 12.9613C15.4358 13.071 15.4226 13.1812 15.3883 13.2857C15.354 13.3902 15.2994 13.4869 15.2276 13.5702C15.1557 13.6535 15.0681 13.7217 14.9698 13.771C14.8715 13.8203 14.7644 13.8496 14.6547 13.8573C14.545 13.8649 14.4348 13.8508 14.3306 13.8157C14.2264 13.7806 14.1301 13.7253 14.0474 13.6528C13.9646 13.5803 13.8971 13.4922 13.8486 13.3935L13.1519 12.0035C12.4219 12.2927 11.6486 12.4844 10.8436 12.5627V14.2702C10.8436 14.4912 10.7558 14.7032 10.5995 14.8594C10.4432 15.0157 10.2313 15.1035 10.0102 15.1035C9.78923 15.1035 9.57727 15.0157 9.42099 14.8594C9.2647 14.7032 9.17691 14.4912 9.17691 14.2702V12.5619C8.38515 12.4845 7.60814 12.2966 6.86857 12.0035L6.17191 13.3927C6.07187 13.5885 5.89849 13.7369 5.68955 13.8054C5.48061 13.8739 5.25305 13.8571 5.05645 13.7586C4.85986 13.6601 4.71018 13.4879 4.64002 13.2795C4.56986 13.0711 4.58492 12.8434 4.68191 12.646L5.38441 11.246C4.81427 10.8839 4.28433 10.4621 3.80357 9.98769L2.68274 11.1085C2.60587 11.1881 2.51391 11.2516 2.41224 11.2953C2.31057 11.3389 2.20122 11.3619 2.09057 11.3629C1.97993 11.3639 1.87019 11.3428 1.76778 11.3009C1.66536 11.259 1.57232 11.1971 1.49408 11.1188C1.41583 11.0406 1.35396 10.9476 1.31206 10.8451C1.27015 10.7427 1.24907 10.633 1.25003 10.5224C1.25099 10.4117 1.27398 10.3024 1.31766 10.2007C1.36133 10.099 1.42481 10.0071 1.50441 9.93019L2.71274 8.72102C2.35004 8.22106 2.03161 7.69045 1.76107 7.13519C1.66421 6.9366 1.65017 6.70767 1.72206 6.49873C1.79394 6.2898 1.94586 6.11797 2.14441 6.02102V6.02185Z" fill="black"/>
</svg>
