<svg width="20" height="20" viewBox="0 0 20 20" fill="none" xmlns="http://www.w3.org/2000/svg">
<path fill-rule="evenodd" clip-rule="evenodd" d="M17.8556 13.9781C17.657 14.075 17.4281 14.089 17.2191 14.0172C17.0102 13.9453 16.8384 13.7934 16.7414 13.5948C16.4118 12.9173 15.9974 12.2844 15.5081 11.7115C14.8656 10.9559 14.0853 10.3292 13.2089 9.86481C13.1595 9.84517 13.1121 9.82089 13.0673 9.79231C12.1118 9.31406 11.0582 9.06444 9.98976 9.06315C8.90226 9.06315 7.86059 9.32148 6.91226 9.79148C6.86739 9.82023 6.81997 9.84478 6.77059 9.86481C5.86377 10.3454 5.06021 10.9994 4.40559 11.7898C3.9448 12.342 3.55276 12.9481 3.23809 13.5948C3.14107 13.7934 2.96913 13.9453 2.7601 14.0171C2.55108 14.0889 2.32209 14.0748 2.12351 13.9777C1.92493 13.8807 1.77302 13.7088 1.70121 13.4997C1.6294 13.2907 1.64357 13.0617 1.74059 12.8631C2.01145 12.3081 2.33015 11.7778 2.69309 11.2781L1.48392 10.0698C1.32756 9.91356 1.23967 9.70158 1.23959 9.48053C1.23951 9.25947 1.32725 9.04743 1.48351 8.89106C1.63976 8.7347 1.85174 8.64681 2.0728 8.64673C2.29386 8.64665 2.50589 8.73439 2.66226 8.89065L3.78309 10.0115C4.26383 9.53706 4.79377 9.11523 5.36392 8.75315L4.66143 7.35315C4.61139 7.25521 4.58124 7.14834 4.57271 7.03869C4.56418 6.92904 4.57744 6.81879 4.61172 6.71429C4.646 6.60979 4.70062 6.51311 4.77244 6.42983C4.84427 6.34654 4.93186 6.27829 5.03019 6.22902C5.12851 6.17975 5.23562 6.15043 5.34532 6.14275C5.45503 6.13506 5.56518 6.14917 5.66941 6.18426C5.77364 6.21935 5.8699 6.27472 5.95262 6.34719C6.03535 6.41965 6.10292 6.50778 6.15143 6.60648L6.84809 7.99648C7.57809 7.70731 8.35143 7.51565 9.15643 7.43731V5.72981C9.15643 5.5088 9.24422 5.29684 9.4005 5.14056C9.55678 4.98428 9.76875 4.89648 9.98976 4.89648C10.2108 4.89648 10.4227 4.98428 10.579 5.14056C10.7353 5.29684 10.8231 5.5088 10.8231 5.72981V7.43815C11.6149 7.51546 12.3919 7.7034 13.1314 7.99648L13.8281 6.60731C13.9281 6.41149 14.1015 6.26314 14.3104 6.1946C14.5194 6.12606 14.747 6.14288 14.9435 6.2414C15.1401 6.33991 15.2898 6.51214 15.36 6.72054C15.4301 6.92894 15.4151 7.15663 15.3181 7.35398L14.6156 8.75398C15.1857 9.11609 15.7157 9.53791 16.1964 10.0123L17.3173 8.89148C17.3941 8.81189 17.4861 8.7484 17.5878 8.70473C17.6894 8.66106 17.7988 8.63807 17.9094 8.63711C18.0201 8.63614 18.1298 8.65723 18.2322 8.69913C18.3346 8.74103 18.4277 8.80291 18.5059 8.88115C18.5842 8.9594 18.646 9.05244 18.6879 9.15485C18.7298 9.25727 18.7509 9.367 18.75 9.47765C18.749 9.5883 18.726 9.69765 18.6823 9.79932C18.6387 9.90099 18.5752 9.99294 18.4956 10.0698L17.2873 11.279C17.65 11.7789 17.9684 12.3096 18.2389 12.8648C18.3358 13.0634 18.3498 13.2923 18.2779 13.5013C18.2061 13.7102 18.0541 13.882 17.8556 13.979V13.9781Z" fill="black"/>
<circle cx="10" cy="14" r="2.25" stroke="black" stroke-width="1.5"/>
</svg>
