<svg width="37" height="35" viewBox="0 0 37 35" fill="none" xmlns="http://www.w3.org/2000/svg">
<path fill-rule="evenodd" clip-rule="evenodd" d="M1.22386 0C0.899275 0 0.58798 0.131451 0.358461 0.365438C0.128942 0.599425 0 0.916781 0 1.24769C0 1.5786 0.128942 1.89595 0.358461 2.12994C0.58798 2.36393 0.899275 2.49538 1.22386 2.49538H3.65095C3.83791 2.49624 4.02268 2.53641 4.19373 2.61338C4.36477 2.69034 4.5184 2.80244 4.64503 2.94267C4.77165 3.08291 4.86854 3.24826 4.92964 3.4284C4.99074 3.60853 5.01474 3.79958 5.00014 3.9896L3.84116 18.1577C3.78151 18.8788 3.86948 19.6046 4.09949 20.2892C4.3295 20.9739 4.69652 21.6023 5.1773 22.1347C5.65808 22.6671 6.24213 23.0918 6.8924 23.382C7.54268 23.6722 8.245 23.8215 8.95484 23.8204H23.8137C26.4679 23.8204 28.7534 21.6347 28.9554 18.9559L29.5143 11.0368H35.234C35.5586 11.0368 35.8699 10.9053 36.0994 10.6714C36.3289 10.4374 36.4578 10.12 36.4578 9.78911C36.4578 9.4582 36.3289 9.14085 36.0994 8.90686C35.8699 8.67287 35.5586 8.54142 35.234 8.54142H29.6897L29.7089 8.28587C29.7673 7.5646 29.6772 6.83884 29.4444 6.15514C29.2116 5.47145 28.8411 4.8449 28.3569 4.3157C27.8726 3.78649 27.2852 3.3663 26.6324 3.08208C25.9795 2.79786 25.2756 2.65588 24.5657 2.66525H7.25765C7.00602 1.89165 6.52199 1.21838 5.87414 0.740833C5.22628 0.263289 4.44746 0.00568291 3.648 0.00450954L1.22386 0ZM27.2405 8.53691L27.2715 8.10097C27.3045 7.72198 27.2588 7.34014 27.1373 6.98038C27.0158 6.62063 26.8212 6.29104 26.5663 6.01313C26.3114 5.73523 26.0019 5.51526 25.6579 5.36759C25.3139 5.21992 24.9433 5.14786 24.5701 5.15612H7.35792L6.27709 18.3681C6.24623 18.7449 6.29253 19.1241 6.41305 19.4817C6.53356 19.8393 6.72566 20.1674 6.97717 20.4453C7.22867 20.7232 7.53408 20.9447 7.87402 21.0959C8.21396 21.2471 8.58102 21.3246 8.95189 21.3235H23.8137C25.1777 21.3235 26.4089 20.1555 26.5151 18.768L27.0621 11.0338H11.0177C10.6931 11.0338 10.3818 10.9023 10.1523 10.6684C9.92279 10.4344 9.79385 10.117 9.79385 9.7861C9.79385 9.45519 9.92279 9.13784 10.1523 8.90385C10.3818 8.66986 10.6931 8.53841 11.0177 8.53841L27.2405 8.53691Z" fill="#272D2F"/>
<path d="M10.3927 30.0452C10.3927 30.3613 10.3007 30.6702 10.1285 30.933C9.95628 31.1958 9.71148 31.4006 9.42507 31.5215C9.13866 31.6425 8.8235 31.6741 8.51945 31.6125C8.2154 31.5508 7.93611 31.3986 7.7169 31.1751C7.49769 30.9517 7.34841 30.6669 7.28793 30.357C7.22745 30.047 7.25849 29.7257 7.37713 29.4337C7.49576 29.1417 7.69666 28.8922 7.95443 28.7166C8.21219 28.541 8.51523 28.4473 8.82524 28.4473C9.03113 28.4471 9.23504 28.4883 9.4253 28.5685C9.61556 28.6487 9.78843 28.7664 9.93401 28.9149C10.0796 29.0633 10.1951 29.2395 10.2738 29.4335C10.3525 29.6274 10.3929 29.8353 10.3927 30.0452Z" fill="#272D2F"/>
<path d="M25.2745 30.0452C25.2742 30.3609 25.1821 30.6694 25.0099 30.9317C24.8376 31.1941 24.5929 31.3985 24.3068 31.5191C24.0206 31.6397 23.7058 31.6711 23.4021 31.6093C23.0985 31.5475 22.8196 31.3954 22.6007 31.172C22.3819 30.9487 22.2329 30.6642 22.1726 30.3546C22.1123 30.045 22.1434 29.7241 22.2619 29.4324C22.3805 29.1408 22.5812 28.8916 22.8387 28.7162C23.0962 28.5409 23.3989 28.4473 23.7085 28.4473C23.9144 28.4471 24.1182 28.4883 24.3084 28.5685C24.4985 28.6488 24.6713 28.7665 24.8168 28.9149C24.9623 29.0634 25.0776 29.2396 25.1561 29.4336C25.2346 29.6275 25.2749 29.8354 25.2745 30.0452Z" fill="#272D2F"/>
<path fill-rule="evenodd" clip-rule="evenodd" d="M26.6751 30.0093C26.681 30.6452 26.4397 31.2575 26.0039 31.7125C25.5681 32.1674 24.9734 32.4279 24.3497 32.4371H8.45574C7.82416 32.4371 7.21845 32.1813 6.77186 31.726C6.32526 31.2707 6.07437 30.6532 6.07437 30.0093C6.07437 29.3654 6.32526 28.7479 6.77186 28.2926C7.21845 27.8374 7.82416 27.5816 8.45574 27.5816H24.3497C24.9734 27.5907 25.5681 27.8512 26.0039 28.3062C26.4397 28.7611 26.681 29.3735 26.6751 30.0093ZM28.502 32.4867C28.0928 33.2449 27.4922 33.8778 26.7624 34.3197C26.0326 34.7616 25.2001 34.9965 24.3512 35.0001H8.45574C5.81485 35.0001 3.67383 32.7648 3.67383 30.0093C3.67383 27.2539 5.81485 25.0186 8.45574 25.0186H24.3497C26.9891 25.0186 29.1302 27.2524 29.1302 30.0093C29.1326 30.8763 28.9163 31.7295 28.502 32.4867Z" fill="#FC8019"/>
</svg>
