<svg width="172" height="35" viewBox="0 0 172 35" fill="none" xmlns="http://www.w3.org/2000/svg">
<path fill-rule="evenodd" clip-rule="evenodd" d="M1.22386 0C0.899275 0 0.58798 0.131451 0.358461 0.365438C0.128942 0.599425 0 0.916781 0 1.24769C0 1.5786 0.128942 1.89595 0.358461 2.12994C0.58798 2.36393 0.899275 2.49538 1.22386 2.49538H3.65095C3.83791 2.49624 4.02268 2.53641 4.19373 2.61338C4.36477 2.69034 4.5184 2.80244 4.64503 2.94267C4.77165 3.08291 4.86854 3.24826 4.92964 3.4284C4.99074 3.60853 5.01474 3.79958 5.00014 3.9896L3.84116 18.1577C3.78151 18.8788 3.86948 19.6046 4.09949 20.2892C4.3295 20.9739 4.69652 21.6023 5.1773 22.1347C5.65808 22.6671 6.24213 23.0918 6.8924 23.382C7.54268 23.6722 8.245 23.8215 8.95484 23.8204H23.8137C26.4679 23.8204 28.7534 21.6347 28.9554 18.9559L29.5143 11.0368H35.234C35.5586 11.0368 35.8699 10.9053 36.0994 10.6714C36.3289 10.4374 36.4578 10.12 36.4578 9.78911C36.4578 9.4582 36.3289 9.14085 36.0994 8.90686C35.8699 8.67287 35.5586 8.54142 35.234 8.54142H29.6897L29.7089 8.28587C29.7673 7.5646 29.6772 6.83884 29.4444 6.15514C29.2116 5.47145 28.8411 4.8449 28.3569 4.3157C27.8726 3.78649 27.2852 3.3663 26.6324 3.08208C25.9795 2.79786 25.2756 2.65588 24.5657 2.66525H7.25765C7.00602 1.89165 6.52199 1.21838 5.87414 0.740833C5.22628 0.263289 4.44746 0.00568291 3.648 0.00450954L1.22386 0ZM27.2405 8.53691L27.2715 8.10097C27.3045 7.72198 27.2588 7.34014 27.1373 6.98038C27.0158 6.62063 26.8212 6.29104 26.5663 6.01313C26.3114 5.73523 26.0019 5.51526 25.6579 5.36759C25.3139 5.21992 24.9433 5.14786 24.5701 5.15612H7.35792L6.27709 18.3681C6.24623 18.7449 6.29253 19.1241 6.41304 19.4817C6.53356 19.8393 6.72566 20.1674 6.97717 20.4453C7.22867 20.7232 7.53408 20.9447 7.87402 21.0959C8.21396 21.2471 8.58102 21.3246 8.95189 21.3235H23.8137C25.1777 21.3235 26.4089 20.1555 26.5151 18.768L27.0621 11.0338H11.0177C10.6931 11.0338 10.3818 10.9023 10.1523 10.6684C9.92279 10.4344 9.79385 10.117 9.79385 9.7861C9.79385 9.45519 9.92279 9.13784 10.1523 8.90385C10.3818 8.66986 10.6931 8.53841 11.0177 8.53841L27.2405 8.53691Z" fill="#272D2F"/>
<path d="M10.3927 30.0452C10.3927 30.3613 10.3007 30.6702 10.1285 30.933C9.95628 31.1958 9.71148 31.4006 9.42507 31.5215C9.13866 31.6425 8.8235 31.6741 8.51945 31.6125C8.2154 31.5508 7.93611 31.3986 7.7169 31.1751C7.49769 30.9517 7.34841 30.6669 7.28793 30.357C7.22745 30.047 7.25849 29.7257 7.37713 29.4337C7.49576 29.1417 7.69666 28.8922 7.95443 28.7166C8.21219 28.541 8.51523 28.4473 8.82524 28.4473C9.03113 28.4471 9.23504 28.4883 9.4253 28.5685C9.61556 28.6487 9.78843 28.7664 9.93401 28.9149C10.0796 29.0633 10.1951 29.2395 10.2738 29.4335C10.3525 29.6274 10.3929 29.8353 10.3927 30.0452Z" fill="#272D2F"/>
<path d="M25.2745 30.0452C25.2742 30.3609 25.1821 30.6694 25.0099 30.9317C24.8376 31.1941 24.5929 31.3985 24.3068 31.5191C24.0206 31.6397 23.7058 31.6711 23.4021 31.6093C23.0985 31.5475 22.8196 31.3954 22.6007 31.172C22.3819 30.9487 22.2329 30.6642 22.1726 30.3546C22.1123 30.045 22.1434 29.7241 22.2619 29.4324C22.3805 29.1408 22.5812 28.8916 22.8387 28.7162C23.0962 28.5409 23.3989 28.4473 23.7085 28.4473C23.9144 28.4471 24.1182 28.4883 24.3084 28.5685C24.4985 28.6488 24.6713 28.7665 24.8168 28.9149C24.9623 29.0634 25.0776 29.2396 25.1561 29.4336C25.2346 29.6275 25.2749 29.8354 25.2745 30.0452Z" fill="#272D2F"/>
<path fill-rule="evenodd" clip-rule="evenodd" d="M26.6751 30.0093C26.681 30.6452 26.4397 31.2575 26.0039 31.7125C25.5681 32.1674 24.9734 32.4279 24.3497 32.437H8.45574C7.82416 32.437 7.21845 32.1813 6.77186 31.726C6.32526 31.2707 6.07437 30.6532 6.07437 30.0093C6.07437 29.3654 6.32526 28.7479 6.77186 28.2926C7.21845 27.8374 7.82416 27.5816 8.45574 27.5816H24.3497C24.9734 27.5907 25.5681 27.8512 26.0039 28.3062C26.4397 28.7611 26.681 29.3735 26.6751 30.0093ZM28.502 32.4867C28.0928 33.2449 27.4922 33.8778 26.7624 34.3197C26.0326 34.7616 25.2001 34.9965 24.3512 35.0001H8.45574C5.81485 35.0001 3.67383 32.7648 3.67383 30.0093C3.67383 27.2539 5.81485 25.0186 8.45574 25.0186H24.3497C26.9891 25.0186 29.1302 27.2524 29.1302 30.0093C29.1326 30.8763 28.9163 31.7295 28.502 32.4867Z" fill="#FC8019"/>
<path d="M54.4788 17.8265C54.4892 19.1202 54.2642 20.4047 53.8152 21.6147C53.3866 22.7645 52.7471 23.8206 51.9308 24.7264C51.1271 25.6158 50.151 26.3252 49.0643 26.8099C47.9231 27.3104 46.6939 27.5685 45.4517 27.5685C44.2094 27.5685 42.9802 27.3104 41.8391 26.8099C40.7596 26.3154 39.7873 25.6072 38.9785 24.7264C38.1764 23.8147 37.5465 22.7598 37.1206 21.6147C36.2359 19.1698 36.2359 16.4833 37.1206 14.0384C37.5427 12.8995 38.1731 11.8527 38.9785 10.9537C40.2427 9.58724 41.8898 8.65183 43.6949 8.27518C45.5 7.89852 47.3751 8.09897 49.0643 8.84917C50.1554 9.33547 51.1325 10.0529 51.9308 10.9537C52.7503 11.8467 53.3905 12.8947 53.8152 14.0384C54.2642 15.2484 54.4892 16.5328 54.4788 17.8265ZM51.0254 17.8265C51.0422 16.6929 50.7967 15.5713 50.3088 14.5525C49.8687 13.6053 49.1912 12.7932 48.3447 12.1984C47.4817 11.6332 46.4775 11.3327 45.4517 11.3327C44.4259 11.3327 43.4217 11.6332 42.5586 12.1984C41.7189 12.786 41.0432 13.5858 40.5975 14.5194C40.1241 15.554 39.8881 16.685 39.9074 17.8265C39.8919 18.9677 40.1277 20.0978 40.5975 21.1337C41.0432 22.0699 41.72 22.8718 42.5616 23.4607C43.4246 24.0259 44.4288 24.3264 45.4546 24.3264C46.4804 24.3264 47.4846 24.0259 48.3477 23.4607C49.1892 22.8718 49.8661 22.0699 50.3117 21.1337C50.7976 20.1025 51.0419 18.9704 51.0254 17.8265Z" fill="#272D2F"/>
<path d="M58.896 27.6474C58.685 27.6542 58.475 27.6169 58.2787 27.5378C58.0824 27.4586 57.9041 27.3394 57.7547 27.1874C57.4555 26.8672 57.2932 26.439 57.3035 25.9969V14.8218C57.2969 14.6067 57.3335 14.3925 57.4111 14.1924C57.4887 13.9923 57.6056 13.8105 57.7547 13.6583C57.9037 13.5039 58.0814 13.3813 58.2773 13.2976C58.4732 13.214 58.6836 13.1709 58.896 13.1709C59.1084 13.1709 59.3187 13.214 59.5147 13.2976C59.7106 13.3813 59.8883 13.5039 60.0373 13.6583C60.1864 13.8105 60.3033 13.9923 60.3809 14.1924C60.4585 14.3925 60.4951 14.6067 60.4885 14.8218V17.3652L60.3027 15.5523C60.4857 15.1349 60.7348 14.7509 61.04 14.4159C61.3483 14.081 61.7066 13.7979 62.1016 13.5771C62.4899 13.343 62.9104 13.1697 63.3491 13.063C63.7836 12.9557 64.2291 12.9012 64.6762 12.9006C65.1588 12.8836 65.6308 13.0472 66.0032 13.3606C66.1725 13.4842 66.3111 13.6464 66.4079 13.8344C66.5047 14.0223 66.557 14.2307 66.5606 14.4429C66.5606 15.0382 66.4102 15.4712 66.1094 15.7417C65.8369 15.9835 65.4886 16.1179 65.1274 16.1206C64.8082 16.124 64.4918 16.0595 64.1984 15.9312C63.9062 15.7992 63.589 15.7346 63.2695 15.7417C62.9284 15.7472 62.5928 15.8304 62.2874 15.9853C61.9407 16.1513 61.633 16.3912 61.385 16.6888C61.0976 17.0533 60.8733 17.4651 60.7215 17.9064C60.5514 18.4483 60.4707 19.0152 60.4826 19.584V25.9939C60.4929 26.436 60.3306 26.8642 60.0314 27.1844C59.8829 27.3362 59.7057 27.4556 59.5105 27.5352C59.3153 27.6148 59.1062 27.653 58.896 27.6474Z" fill="#272D2F"/>
<path d="M79.8849 7.33864C80.0961 7.33202 80.3063 7.36941 80.5028 7.4485C80.6993 7.52759 80.8779 7.64673 81.0277 7.79863C81.1784 7.95529 81.2962 8.1417 81.3738 8.34643C81.4514 8.55116 81.4872 8.76988 81.4789 8.9892V25.7083C81.4892 26.1504 81.3269 26.5786 81.0277 26.8988C80.7181 27.1944 80.3098 27.3589 79.8856 27.3589C79.4615 27.3589 79.0532 27.1944 78.7436 26.8988C78.4451 26.5782 78.2829 26.1502 78.2924 25.7083V24.3854L78.8822 24.6289C78.8822 24.8634 78.7569 25.1521 78.5092 25.4948C78.217 25.8633 77.8784 26.1909 77.5021 26.4689C77.0367 26.8159 76.5279 27.098 75.9892 27.3077C75.3936 27.5292 74.7637 27.6392 74.1298 27.6324C72.9579 27.646 71.8067 27.3174 70.8121 26.6854C69.813 26.0255 68.9999 25.1115 68.4529 24.0336C67.8856 22.8972 67.6025 21.5984 67.6035 20.1372C67.6035 18.658 67.8866 17.3592 68.4529 16.2408C68.9852 15.1616 69.7898 14.2463 70.7841 13.5891C71.7464 12.9429 72.8758 12.6038 74.0281 12.615C74.7413 12.6071 75.4503 12.7261 76.1234 12.9668C76.7143 13.1759 77.27 13.4771 77.7704 13.8597C78.1927 14.1633 78.5608 14.5386 78.8586 14.9691C79.1241 15.3299 79.2568 15.6365 79.2568 15.8891L78.2924 16.2378V8.9892C78.2857 8.77296 78.3225 8.55762 78.4007 8.35647C78.4788 8.15532 78.5965 7.97263 78.7466 7.81967C78.8922 7.6621 79.069 7.53776 79.2652 7.45485C79.4614 7.37194 79.6726 7.33233 79.8849 7.33864ZM74.5235 24.656C75.2487 24.6706 75.9612 24.461 76.5672 24.0547C77.1568 23.6509 77.6256 23.0891 77.9223 22.4312C78.2646 21.7153 78.4373 20.9275 78.4266 20.1312C78.4392 19.326 78.2665 18.529 77.9223 17.8042C77.6256 17.1463 77.1568 16.5845 76.5672 16.1807C75.9587 15.7917 75.255 15.5854 74.5368 15.5854C73.8185 15.5854 73.1148 15.7917 72.5063 16.1807C71.9136 16.5876 71.4378 17.1479 71.1277 17.8042C70.7992 18.5335 70.6359 19.3288 70.6499 20.1312C70.6377 20.9247 70.801 21.7108 71.1277 22.4312C71.4378 23.0875 71.9136 23.6478 72.5063 24.0547C73.104 24.4576 73.8071 24.6672 74.5235 24.656Z" fill="#272D2F"/>
<path d="M91.6597 27.6171C90.1557 27.6171 88.8463 27.3014 87.7315 26.67C86.6617 26.0479 85.7803 25.1378 85.1836 24.0394C84.5878 22.8897 84.2866 21.6053 84.3077 20.3053C84.3077 18.6818 84.6262 17.3018 85.2632 16.1654C85.8659 15.0669 86.7456 14.1524 87.8112 13.5167C88.8184 12.9142 89.9655 12.5976 91.1333 12.5997C92.0134 12.5947 92.8836 12.7888 93.6813 13.1679C94.4911 13.5437 95.2213 14.0768 95.8312 14.7373C96.4549 15.3936 96.9503 16.165 97.2909 17.0102C97.6635 17.8805 97.8533 18.8206 97.8483 19.7702C97.8445 19.9724 97.7974 20.1714 97.7103 20.3531C97.6232 20.5349 97.4982 20.6951 97.344 20.8224C97.0327 21.0904 96.6367 21.2346 96.2293 21.2283H87.3511L87 20L87.5 18.5L94.4407 18.5469V18.3331C94.4074 17.8153 94.2121 17.3221 93.8833 16.926C93.5448 16.5125 93.1232 16.1778 92.647 15.9444C92.1709 15.711 91.6512 15.5844 91.123 15.5731C90.6197 15.5691 90.1187 15.642 89.6366 15.7896C89.1853 15.9285 88.7749 16.1796 88.4423 16.5202C88.0771 16.9122 87.8047 17.3843 87.646 17.9001C87.4317 18.6096 87.3321 19.3498 87.3511 20.0919C87.3511 21.066 87.5477 21.8958 87.9409 22.5812C88.3185 23.2193 88.848 23.7498 89.4803 24.1236C90.1014 24.4636 90.7955 24.6413 91.5004 24.6407C92.0271 24.6549 92.5534 24.6004 93.0664 24.4783C93.3918 24.3966 93.7045 24.2691 93.9954 24.0995C94.2431 23.9372 94.4643 23.8019 94.6589 23.6936C94.937 23.5419 95.246 23.4585 95.5613 23.4501C95.7398 23.4442 95.9174 23.4774 96.0822 23.5474C96.2471 23.6174 96.3953 23.7226 96.5168 23.856C96.6431 23.9777 96.7436 24.1246 96.8121 24.2875C96.8805 24.4504 96.9155 24.6258 96.9149 24.803C96.9149 25.2901 96.6692 25.732 96.1777 26.1289C95.7176 26.5297 95.0718 26.8805 94.2401 27.1811C93.4096 27.471 92.5376 27.6183 91.6597 27.6171Z" fill="#272D2F"/>
<path d="M102.263 27.6474C102.052 27.6542 101.842 27.6169 101.646 27.5378C101.45 27.4586 101.271 27.3394 101.122 27.1874C100.823 26.8672 100.66 26.439 100.671 25.9969V14.8218C100.664 14.6067 100.701 14.3925 100.778 14.1924C100.856 13.9923 100.973 13.8105 101.122 13.6583C101.271 13.5041 101.449 13.3817 101.645 13.2981C101.841 13.2146 102.051 13.1715 102.263 13.1715C102.476 13.1715 102.686 13.2146 102.882 13.2981C103.078 13.3817 103.255 13.5041 103.404 13.6583C103.554 13.8105 103.671 13.9923 103.748 14.1924C103.826 14.3925 103.862 14.6067 103.856 14.8218V17.3652L103.667 15.5523C103.85 15.1349 104.099 14.7509 104.404 14.4159C104.713 14.081 105.071 13.7979 105.466 13.5771C105.854 13.343 106.275 13.1697 106.713 13.063C107.148 12.9557 107.593 12.9012 108.04 12.9006C108.523 12.8836 108.995 13.0472 109.367 13.3606C109.537 13.4842 109.675 13.6464 109.772 13.8344C109.869 14.0223 109.921 14.2307 109.925 14.4429C109.925 15.0382 109.774 15.4712 109.474 15.7417C109.201 15.9835 108.853 16.1179 108.492 16.1206C108.172 16.124 107.856 16.0595 107.563 15.9312C107.27 15.7992 106.953 15.7346 106.634 15.7417C106.293 15.7472 105.957 15.8304 105.652 15.9853C105.305 16.1513 104.997 16.3912 104.749 16.6888C104.462 17.0533 104.238 17.4651 104.086 17.9064C103.916 18.4483 103.835 19.0152 103.847 19.584V25.9939C103.857 26.436 103.695 26.8642 103.396 27.1844C103.248 27.3358 103.071 27.455 102.876 27.5346C102.681 27.6142 102.473 27.6526 102.263 27.6474Z" fill="#272D2F"/>
<path d="M118.484 27.6322C118.034 27.6494 117.595 27.484 117.264 27.1722C117.109 27.0169 116.987 26.8308 116.905 26.6255C116.824 26.4202 116.785 26.2 116.79 25.9787V11.8031H120.241V25.9787C120.244 26.2022 120.201 26.424 120.114 26.6292C120.027 26.8345 119.898 27.0186 119.736 27.1692C119.396 27.4864 118.945 27.6529 118.484 27.6322ZM112.619 11.8031C112.19 11.8146 111.772 11.6599 111.451 11.3702C111.301 11.2243 111.183 11.0475 111.105 10.8515C111.027 10.6555 110.991 10.4449 111 10.2337C110.99 10.0263 111.025 9.81919 111.103 9.62735C111.181 9.43551 111.3 9.26371 111.451 9.12432C111.772 8.83456 112.19 8.67985 112.619 8.69138H124.403C124.825 8.67668 125.235 8.83228 125.544 9.12432C125.695 9.2709 125.816 9.44721 125.898 9.64256C125.98 9.83791 126.022 10.0482 126.022 10.2608C126.022 10.4733 125.98 10.6836 125.898 10.879C125.816 11.0743 125.695 11.2506 125.544 11.3972C125.228 11.6738 124.82 11.8186 124.403 11.8031H112.619Z" fill="#FC8019"/>
<path d="M138.738 12.6004C138.949 12.5936 139.159 12.6309 139.356 12.7101C139.552 12.7892 139.73 12.9084 139.88 13.0604C140.03 13.217 140.148 13.4035 140.226 13.6082C140.303 13.8129 140.339 14.0316 140.331 14.2509V25.6936C140.341 26.1358 140.179 26.564 139.88 26.8842C139.57 27.1797 139.162 27.3441 138.738 27.3441C138.314 27.3441 137.906 27.1797 137.597 26.8842C137.298 26.564 137.136 26.1358 137.146 25.6936V24.3708L137.736 24.6143C137.736 24.8488 137.612 25.1374 137.364 25.4802C137.071 25.8487 136.732 26.1762 136.356 26.4543C135.89 26.8016 135.382 27.0837 134.843 27.2931C134.248 27.5147 133.618 27.6247 132.985 27.6178C131.813 27.6318 130.661 27.3031 129.667 26.6707C128.668 26.0107 127.855 25.0968 127.308 24.019C126.725 22.8075 126.434 21.4718 126.458 20.1226C126.458 18.6434 126.742 17.3446 127.308 16.2262C127.842 15.1465 128.648 14.2312 129.643 13.5745C130.606 12.9278 131.735 12.5886 132.887 12.6004C133.601 12.5924 134.311 12.7114 134.984 12.9521C135.575 13.1613 136.13 13.4625 136.63 13.8451C137.052 14.1487 137.42 14.5239 137.718 14.9545C137.983 15.3152 138.116 15.6219 138.116 15.8744L137.161 16.2262V14.2509C137.154 14.0359 137.191 13.8217 137.268 13.6216C137.346 13.4215 137.463 13.2397 137.612 13.0874C137.756 12.9302 137.93 12.8056 138.124 12.7217C138.318 12.6378 138.528 12.5965 138.738 12.6004ZM133.377 24.6414C134.102 24.6555 134.814 24.4459 135.421 24.0401C136.01 23.6366 136.479 23.0747 136.774 22.4166C137.117 21.7009 137.29 20.913 137.279 20.1166C137.292 19.3113 137.119 18.5142 136.774 17.7896C136.479 17.1314 136.01 16.5695 135.421 16.1661C134.814 15.7602 134.102 15.5506 133.377 15.5648C132.661 15.5532 131.957 15.7628 131.36 16.1661C130.767 16.5733 130.291 17.1335 129.98 17.7896C129.652 18.5191 129.489 19.3143 129.502 20.1166C129.49 20.91 129.654 21.696 129.98 22.4166C130.291 23.0726 130.767 23.6328 131.36 24.0401C131.957 24.4433 132.661 24.6529 133.377 24.6414Z" fill="#272D2F"/>
<path d="M151.414 12.8996C152.723 12.8996 153.714 13.1792 154.387 13.7384C155.084 14.3096 155.579 15.0987 155.793 15.9843C156.07 16.9879 156.204 18.0266 156.191 19.0689V25.9929C156.202 26.435 156.039 26.8632 155.74 27.1834C155.431 27.4789 155.023 27.6434 154.599 27.6434C154.175 27.6434 153.767 27.4789 153.458 27.1834C153.158 26.8632 152.996 26.435 153.006 25.9929V19.0689C153.015 18.5269 152.934 17.9874 152.768 17.4725C152.639 17.0041 152.358 16.594 151.971 16.309C151.578 16.0204 151.021 15.8761 150.299 15.8761C149.671 15.8565 149.048 16.0058 148.494 16.309C148.027 16.5872 147.641 16.9892 147.38 17.4725C147.126 17.9644 146.998 18.5134 147.008 19.0689V25.9929C147.018 26.435 146.856 26.8632 146.557 27.1834C146.247 27.4789 145.839 27.6434 145.416 27.6434C144.992 27.6434 144.584 27.4789 144.274 27.1834C143.975 26.8632 143.813 26.435 143.823 25.9929V14.8208C143.816 14.6057 143.853 14.3915 143.931 14.1915C144.008 13.9914 144.125 13.8096 144.274 13.6573C144.423 13.5031 144.601 13.3807 144.797 13.2971C144.993 13.2136 145.203 13.1705 145.416 13.1705C145.628 13.1705 145.838 13.2136 146.034 13.2971C146.23 13.3807 146.408 13.5031 146.557 13.6573C146.706 13.8096 146.823 13.9914 146.9 14.1915C146.978 14.3915 147.015 14.6057 147.008 14.8208V15.9843L146.61 15.9031C146.801 15.5514 147.032 15.2243 147.3 14.929C147.615 14.5548 147.971 14.2189 148.362 13.9279C148.782 13.6139 149.248 13.3675 149.742 13.1973C150.277 12.9949 150.843 12.894 151.414 12.8996Z" fill="#272D2F"/>
<path d="M161.535 27.6615C161.324 27.6683 161.114 27.631 160.917 27.5519C160.721 27.4728 160.543 27.3535 160.393 27.2015C160.094 26.8813 159.932 26.4531 159.942 26.011V9.28891C159.936 9.07385 159.972 8.85968 160.05 8.65959C160.127 8.45949 160.244 8.2777 160.393 8.1254C160.542 7.97123 160.72 7.84882 160.916 7.76526C161.112 7.6817 161.322 7.63867 161.535 7.63867C161.747 7.63867 161.957 7.6817 162.153 7.76526C162.349 7.84882 162.527 7.97123 162.676 8.1254C162.825 8.2777 162.942 8.45949 163.02 8.65959C163.097 8.85968 163.134 9.07385 163.127 9.28891V26.008C163.137 26.4501 162.975 26.8783 162.676 27.1985C162.527 27.3511 162.349 27.4708 162.152 27.5505C161.956 27.6301 161.746 27.6679 161.535 27.6615ZM169.975 13.1853C170.178 13.1863 170.378 13.2328 170.562 13.3217C170.745 13.4105 170.907 13.5395 171.037 13.6994C171.337 14.0422 171.488 14.3759 171.488 14.7006C171.488 15.1335 171.275 15.5394 170.851 15.9182L162.862 23.4134L162.729 19.6793L168.807 13.6994C168.957 13.537 169.138 13.4076 169.339 13.3192C169.54 13.2308 169.756 13.1852 169.975 13.1853ZM170.373 27.6345C170.151 27.6371 169.932 27.59 169.73 27.4965C169.528 27.4029 169.349 27.2653 169.205 27.0933L164.295 21.7899L166.71 19.517L171.494 24.8204C171.652 24.9796 171.778 25.1691 171.865 25.378C171.951 25.5869 171.997 25.8112 171.998 26.038C172.001 26.2629 171.952 26.4854 171.855 26.6876C171.759 26.8897 171.616 27.0658 171.441 27.2015C171.145 27.4678 170.767 27.6208 170.373 27.6345Z" fill="#272D2F"/>
</svg>
