<svg width="44" height="44" viewBox="0 0 44 44" fill="none" xmlns="http://www.w3.org/2000/svg">
<rect width="44" height="44" rx="15" fill="#FC8019"/>
<g clip-path="url(#clip0_37_14454)">
<path d="M32.3805 22.059L22.9358 12.6142C22.5525 12.2362 22.0275 12 21.45 12H14.1C12.9397 12 12 12.9397 12 14.1V21.45C12 22.0327 12.2362 22.5578 12.6195 22.9358L22.0695 32.3858C22.4475 32.7638 22.9725 33 23.55 33C24.1275 33 24.6578 32.7638 25.0358 32.3858L32.3858 25.0358C32.7638 24.6525 33 24.1275 33 23.55C33 22.9673 32.7638 22.4422 32.3805 22.059ZM15.675 17.25C14.8035 17.25 14.1 16.5465 14.1 15.675C14.1 14.8035 14.8035 14.1 15.675 14.1C16.5465 14.1 17.25 14.8035 17.25 15.675C17.25 16.5465 16.5465 17.25 15.675 17.25Z" fill="white"/>
</g>
<defs>
<clipPath id="clip0_37_14454">
<rect width="21" height="21" fill="white" transform="translate(12 12)"/>
</clipPath>
</defs>
</svg>
